<svg xmlns="http://www.w3.org/2000/svg" viewBox="0 0 91.08 64.8">
  <g>
    <path d="M12.68,64.56l-10,.24L19.92,41.54c-.74.1-1.36.17-1.87.22s-.92.07-1.24.07A15.87,15.87,0,0,1,5,36.61a17.44,17.44,0,0,1-5-12.5,18.12,18.12,0,0,1,5.52-13.3,18.11,18.11,0,0,1,13.3-5.56,18.73,18.73,0,0,1,13.41,5.48,17.22,17.22,0,0,1,5.7,12.87q0,6.57-5.55,14.21ZM8.29,23.49a10.43,10.43,0,0,0,3.11,7.67A10.3,10.3,0,0,0,19,34.3a10.25,10.25,0,0,0,7.53-3.1,10.32,10.32,0,0,0,3.15-7.57,10.29,10.29,0,0,0-3.15-7.56A10.29,10.29,0,0,0,18.93,13a10.22,10.22,0,0,0-7.49,3.11A10.13,10.13,0,0,0,8.29,23.49Z"/>
    <path d="M64.5,44.87h6v7.75h-6v8H56v-8H28.28L64.5,0Zm-8.52,0V26L43,44.87Z"/>
    <path d="M89.39,38.21l-5,2.66c-.79-1.61-1.77-2.42-2.93-2.42A2,2,0,0,0,80,39a1.83,1.83,0,0,0-.59,1.41c0,1,1.16,2,3.5,3,3.21,1.38,5.37,2.66,6.48,3.82a6.52,6.52,0,0,1,1.67,4.71,8.23,8.23,0,0,1-2.8,6.35,9.5,9.5,0,0,1-6.56,2.43q-6.6,0-9.34-6.44l5.16-2.39a10.93,10.93,0,0,0,1.65,2.39,3.69,3.69,0,0,0,2.63,1c2.05,0,3.07-.94,3.07-2.8,0-1.08-.79-2.08-2.37-3-.61-.3-1.22-.6-1.83-.88l-1.85-.89a11.41,11.41,0,0,1-3.72-2.59,6.37,6.37,0,0,1-1.37-4.22,7.47,7.47,0,0,1,2.34-5.65A8.21,8.21,0,0,1,81.9,33Q86.94,33,89.39,38.21Z"/>
  </g>
</svg>
